<svg width="24" height="24" viewBox="0 0 24 24" fill="none" xmlns="http://www.w3.org/2000/svg">
<mask id="mask0_504_500" style="mask-type:alpha" maskUnits="userSpaceOnUse" x="0" y="0" width="24" height="24">
<rect width="24" height="24" fill="#D9D9D9"/>
</mask>
<g mask="url(#mask0_504_500)">
<path d="M12 21.9999C10.6167 21.9999 9.31667 21.7374 8.1 21.2124C6.88333 20.6874 5.825 19.9749 4.925 19.0749C4.025 18.1749 3.3125 17.1166 2.7875 15.8999C2.2625 14.6833 2 13.3833 2 11.9999C2 10.6166 2.2625 9.31661 2.7875 8.09994C3.3125 6.88327 4.025 5.82494 4.925 4.92494C5.825 4.02494 6.88333 3.31244 8.1 2.78744C9.31667 2.26244 10.6167 1.99994 12 1.99994C13.3833 1.99994 14.6833 2.26244 15.9 2.78744C17.1167 3.31244 18.175 4.02494 19.075 4.92494C19.975 5.82494 20.6875 6.88327 21.2125 8.09994C21.7375 9.31661 22 10.6166 22 11.9999C22 13.3833 21.7375 14.6833 21.2125 15.8999C20.6875 17.1166 19.975 18.1749 19.075 19.0749C18.175 19.9749 17.1167 20.6874 15.9 21.2124C14.6833 21.7374 13.3833 21.9999 12 21.9999ZM12 19.9999C14.2333 19.9999 16.125 19.2249 17.675 17.6749C19.225 16.1249 20 14.2333 20 11.9999C20 11.0999 19.8542 10.2333 19.5625 9.39994C19.2708 8.56661 18.85 7.79994 18.3 7.09994L7.1 18.2999C7.8 18.8499 8.56667 19.2708 9.4 19.5624C10.2333 19.8541 11.1 19.9999 12 19.9999ZM5.7 16.8999L16.9 5.69994C16.2 5.14994 15.4333 4.72911 14.6 4.43744C13.7667 4.14577 12.9 3.99994 12 3.99994C9.76667 3.99994 7.875 4.77494 6.325 6.32494C4.775 7.87494 4 9.76661 4 11.9999C4 12.8999 4.14583 13.7666 4.4375 14.5999C4.72917 15.4333 5.15 16.1999 5.7 16.8999Z" fill="#F76C6C"/>
</g>
</svg>
