<svg width="25" height="24" viewBox="0 0 25 24" fill="none" xmlns="http://www.w3.org/2000/svg">
<mask id="mask0_455_704" style="mask-type:alpha" maskUnits="userSpaceOnUse" x="0" y="0" width="25" height="24">
<rect x="0.5" width="24" height="24" fill="black"/>
</mask>
<g mask="url(#mask0_455_704)">
<path d="M5.5 21C4.95 21 4.47917 20.8042 4.0875 20.4125C3.69583 20.0208 3.5 19.55 3.5 19V6.5C3.5 6.25 3.54167 6.025 3.625 5.825C3.70833 5.625 3.81667 5.43333 3.95 5.25L5.35 3.55C5.48333 3.36667 5.65 3.22917 5.85 3.1375C6.05 3.04583 6.26667 3 6.5 3H18.5C18.7333 3 18.95 3.04583 19.15 3.1375C19.35 3.22917 19.5167 3.36667 19.65 3.55L21.05 5.25C21.1833 5.43333 21.2917 5.625 21.375 5.825C21.4583 6.025 21.5 6.25 21.5 6.5V19C21.5 19.55 21.3042 20.0208 20.9125 20.4125C20.5208 20.8042 20.05 21 19.5 21H5.5ZM5.9 6H19.1L18.25 5H6.75L5.9 6ZM5.5 8V19H19.5V8H5.5ZM12.5 18L16.5 14L15.1 12.6L13.5 14.2V10H11.5V14.2L9.9 12.6L8.5 14L12.5 18Z" fill="black"/>
</g>
</svg>
