<svg width="100" height="24" viewBox="0 0 100 24" fill="none" xmlns="http://www.w3.org/2000/svg">
<rect y="0.010498" width="5" height="21.9571" fill="#1567FB"/>
<path d="M2.50042 14.0179C3.85899 14.6853 5.01503 14.7485 6.60756 14.7751C8.20009 14.8016 10.8943 14.8182 12.2862 14.1967C13.6781 13.5751 14.189 13.0253 15.0004 11.9252C15.8118 10.8252 16.0622 8.8102 16.0717 7.53189C16.0812 6.25357 15.633 4.25222 14.838 3.14447C14.043 2.03673 13.6687 1.69115 12.2862 1.05627C10.9036 0.4214 8.58129 -0.000513397 6.98847 0.0107379C5.39566 0.0219892 3.2147 -0.178299 1.78613 0.767915L3.2147 4.55341C3.88694 4.23198 6.18223 4.36965 6.9647 4.36412C7.74718 4.35859 8.75042 4.36434 9.4647 4.55341C10.1439 4.86529 10.6109 5.1979 11.0015 5.74208C11.392 6.28626 11.5953 6.90395 11.5907 7.53192C11.586 8.1599 11.3735 8.77559 10.9748 9.31598C10.8205 9.52523 10.6404 9.72028 10.4379 9.89848C9.77674 10.4804 8.88129 10.6918 8.00119 10.7268C7.55728 10.7444 7.1194 10.7444 6.73043 10.7379C5.94809 10.7249 4.49353 10.6861 3.82614 10.3582L2.50042 14.0179Z" fill="#1567FB"/>
<rect x="18.5703" y="0.38916" width="4.59459" height="21.5786" fill="#1567FB"/>
<rect x="30.7139" y="17.4248" width="4.54286" height="7.87645" transform="rotate(90 30.7139 17.4248)" fill="#1567FB"/>
<path d="M39.8887 0.373047L43.7181 1.92377L36.6824 21.4454L32.32 21.4454L39.8887 0.373047Z" fill="#1567FB"/>
<path d="M41.4277 1.92041L45.2641 0.389136L52.8563 21.5965L48.4175 21.5967L41.4277 1.92041Z" fill="#1567FB"/>
<rect x="39.999" y="0.38916" width="5.17857" height="1.51429" fill="#1567FB"/>
<path d="M42.4988 21.6274L39.7703 16.4834L45.3373 16.5507L42.4988 21.6274Z" fill="#1567FB"/>
<rect x="55.3574" y="0.38916" width="4.28571" height="21.2" fill="#1567FB"/>
<path d="M55.9541 2.80444L59.6427 0.389202L72.857 21.6393L68.1009 21.6393L55.9541 2.80444Z" fill="#1567FB"/>
<path d="M68.5713 0.38916H72.857V16.6677L68.7499 11.1784L68.5713 0.38916Z" fill="#1567FB"/>
<rect x="76.7861" y="0.38916" width="4.64286" height="21.2" fill="#1567FB"/>
<rect x="100" y="0.38916" width="4.16429" height="16.4286" transform="rotate(90 100 0.38916)" fill="#1567FB"/>
<rect x="89.2861" y="6.82495" width="4.64286" height="15.1429" fill="#1567FB"/>
<ellipse cx="91.6076" cy="7.01396" rx="2.32143" ry="1.325" fill="#1567FB"/>
</svg>
